<svg width="28" height="31" viewBox="0 0 28 31" fill="none" xmlns="http://www.w3.org/2000/svg">
<path d="M8.60877 3.44773C8.15213 3.44773 7.7142 3.62912 7.3913 3.95202C7.06841 4.27491 6.88701 4.71284 6.88701 5.16948C6.88701 5.62612 7.06841 6.06405 7.3913 6.38694C7.7142 6.70983 8.15213 6.89123 8.60877 6.89123C9.0654 6.89123 9.50334 6.70983 9.82623 6.38694C10.1491 6.06405 10.3305 5.62612 10.3305 5.16948C10.3305 4.71284 10.1491 4.27491 9.82623 3.95202C9.50334 3.62912 9.0654 3.44773 8.60877 3.44773ZM3.73621 3.44773C4.09192 2.43958 4.75159 1.5666 5.62428 0.949099C6.49697 0.331602 7.53971 0 8.60877 0C9.67783 0 10.7206 0.331602 11.5933 0.949099C12.4659 1.5666 13.1256 2.43958 13.4813 3.44773H25.8263C26.2829 3.44773 26.7209 3.62912 27.0438 3.95202C27.3667 4.27491 27.5481 4.71284 27.5481 5.16948C27.5481 5.62612 27.3667 6.06405 27.0438 6.38694C26.7209 6.70983 26.2829 6.89123 25.8263 6.89123H13.4813C13.1256 7.89938 12.4659 8.77236 11.5933 9.38986C10.7206 10.0074 9.67783 10.339 8.60877 10.339C7.53971 10.339 6.49697 10.0074 5.62428 9.38986C4.75159 8.77236 4.09192 7.89938 3.73621 6.89123H1.72175C1.26512 6.89123 0.827182 6.70983 0.50429 6.38694C0.181399 6.06405 0 5.62612 0 5.16948C0 4.71284 0.181399 4.27491 0.50429 3.95202C0.827182 3.62912 1.26512 3.44773 1.72175 3.44773H3.73621ZM18.9393 13.7782C18.4827 13.7782 18.0447 13.9596 17.7218 14.2825C17.3989 14.6054 17.2175 15.0434 17.2175 15.5C17.2175 15.9566 17.3989 16.3946 17.7218 16.7175C18.0447 17.0404 18.4827 17.2218 18.9393 17.2218C19.3959 17.2218 19.8339 17.0404 20.1568 16.7175C20.4796 16.3946 20.661 15.9566 20.661 15.5C20.661 15.0434 20.4796 14.6054 20.1568 14.2825C19.8339 13.9596 19.3959 13.7782 18.9393 13.7782ZM14.0667 13.7782C14.4224 12.7701 15.0821 11.8971 15.9548 11.2796C16.8275 10.6621 17.8702 10.3305 18.9393 10.3305C20.0083 10.3305 21.0511 10.6621 21.9238 11.2796C22.7965 11.8971 23.4561 12.7701 23.8118 13.7782H25.8263C26.2829 13.7782 26.7209 13.9596 27.0438 14.2825C27.3667 14.6054 27.5481 15.0434 27.5481 15.5C27.5481 15.9566 27.3667 16.3946 27.0438 16.7175C26.7209 17.0404 26.2829 17.2218 25.8263 17.2218H23.8118C23.4561 18.2299 22.7965 19.1029 21.9238 19.7204C21.0511 20.3379 20.0083 20.6695 18.9393 20.6695C17.8702 20.6695 16.8275 20.3379 15.9548 19.7204C15.0821 19.1029 14.4224 18.2299 14.0667 17.2218H1.72175C1.26512 17.2218 0.827182 17.0404 0.50429 16.7175C0.181399 16.3946 0 15.9566 0 15.5C0 15.0434 0.181399 14.6054 0.50429 14.2825C0.827182 13.9596 1.26512 13.7782 1.72175 13.7782H14.0667ZM8.60877 24.1088C8.15213 24.1088 7.7142 24.2902 7.3913 24.6131C7.06841 24.9359 6.88701 25.3739 6.88701 25.8305C6.88701 26.2872 7.06841 26.7251 7.3913 27.048C7.7142 27.3709 8.15213 27.5523 8.60877 27.5523C9.0654 27.5523 9.50334 27.3709 9.82623 27.048C10.1491 26.7251 10.3305 26.2872 10.3305 25.8305C10.3305 25.3739 10.1491 24.9359 9.82623 24.6131C9.50334 24.2902 9.0654 24.1088 8.60877 24.1088ZM3.73621 24.1088C4.09192 23.1006 4.75159 22.2276 5.62428 21.6101C6.49697 20.9926 7.53971 20.661 8.60877 20.661C9.67783 20.661 10.7206 20.9926 11.5933 21.6101C12.4659 22.2276 13.1256 23.1006 13.4813 24.1088H25.8263C26.2829 24.1088 26.7209 24.2902 27.0438 24.6131C27.3667 24.9359 27.5481 25.3739 27.5481 25.8305C27.5481 26.2872 27.3667 26.7251 27.0438 27.048C26.7209 27.3709 26.2829 27.5523 25.8263 27.5523H13.4813C13.1256 28.5604 12.4659 29.4334 11.5933 30.0509C10.7206 30.6684 9.67783 31 8.60877 31C7.53971 31 6.49697 30.6684 5.62428 30.0509C4.75159 29.4334 4.09192 28.5604 3.73621 27.5523H1.72175C1.26512 27.5523 0.827182 27.3709 0.50429 27.048C0.181399 26.7251 0 26.2872 0 25.8305C0 25.3739 0.181399 24.9359 0.50429 24.6131C0.827182 24.2902 1.26512 24.1088 1.72175 24.1088H3.73621Z" fill="#199FB1"/>
</svg>
